<?xml version="1.0" encoding="iso-8859-1"?>
<!-- Generator: Adobe Illustrator 19.0.0, SVG Export Plug-In . SVG Version: 6.00 Build 0)  -->
<svg version="1.1" id="Layer_1" xmlns="http://www.w3.org/2000/svg" xmlns:xlink="http://www.w3.org/1999/xlink" x="0px" y="0px"
	 viewBox="0 0 511.99 511.99" style="enable-background:new 0 0 511.99 511.99;" xml:space="preserve">
<polygon style="fill:#ED5564;" points="493.991,200.996 478.991,149.497 437.991,89.998 384.493,45.999 319.493,19.999 
	263.995,13.499 198.996,21.499 128.997,48.999 78.498,87.498 40.499,135.497 18.999,200.496 18.999,236.995 58.498,240.495 
	168.996,255.995 187.996,210.996 234.995,184.996 262.495,184.996 287.995,188.996 320.993,210.996 347.993,252.495 
	496.491,235.995 "/>
<polygon style="fill:#F5F7FA;" points="340.993,288.495 335.993,293.494 319.493,326.993 288.995,346.993 260.245,349.493 
	235.995,344.993 220.495,339.993 199.996,326.993 187.496,311.994 174.496,288.495 150.497,283.995 75.498,276.495 18.999,271.995 
	14.999,284.995 40.499,374.493 107.997,451.991 219.495,497.991 304.994,500.491 367.993,478.491 432.991,427.491 482.491,353.493 
	505.49,266.667 "/>
<path style="fill:#434A54;" d="M505.49,238.495l-35.999,3l-123.998,18l-8-8l-7.5-17.5l-13.499-26.5l-37.499-19h-23l-43.101,8.719
	l-23.398,20.781l-14.5,38h-41.5l-118.497-12l2,22.672l23,4.828l97.92,11.25l34.554,5.375l11.523,27.374l25.5,22.999l23,9.484h45.125
	c0,0,29.374-17.984,31.718-19.484c2.328-1.5,31.655-39.998,31.655-39.998l12.5-6.5l130.998-15.328l23.498-7.672L505.49,238.495z"/>
<path style="fill:#F5F7FA;" d="M296.869,266.557c0,21.844-17.718,39.562-39.562,39.562c-21.851,0-39.562-17.718-39.562-39.562
	s17.711-39.562,39.562-39.562C279.151,226.995,296.869,244.714,296.869,266.557z"/>
<path d="M491.866,156.341c-12.891-30.468-31.344-57.843-54.844-81.358c-23.515-23.515-50.904-41.953-81.373-54.858
	C324.087,6.781,290.557,0,255.995,0c-34.554,0-68.085,6.781-99.646,20.125C125.865,33.03,98.482,51.468,74.983,74.983
	c-23.507,23.515-41.968,50.89-54.858,81.358C6.773,187.918,0,221.433,0,255.995s6.773,68.092,20.125,99.654
	c12.89,30.484,31.351,57.858,54.858,81.373c23.5,23.5,50.882,41.953,81.366,54.844c31.562,13.358,65.092,20.124,99.646,20.124
	c34.562,0,68.092-6.766,99.654-20.124c30.469-12.891,57.858-31.344,81.373-54.844c23.5-23.515,41.953-50.889,54.844-81.373
	c13.343-31.562,20.124-65.092,20.124-99.654C511.99,221.433,505.209,187.918,491.866,156.341z M490.647,255.995
	c0,0.656,0,1.297-0.016,1.938c-10.406,1.984-30.203,5.438-57.672,8.859c-20.765,2.594-48.326,5.453-81.279,7.531
	c0.219-2.516,0.312-5.078,0.312-7.656c0-0.984-0.016-1.953-0.047-2.938c68.202-4.234,116.576-11.984,138.545-16.047
	C490.585,250.448,490.647,253.214,490.647,255.995z M90.06,90.06c44.328-44.311,103.256-68.717,165.935-68.717
	c62.686,0,121.607,24.406,165.935,68.717c37.233,37.25,60.405,84.795,66.874,136.216c-10.812,2.031-29.906,5.281-55.844,8.516
	c-21.343,2.672-49.873,5.609-84.061,7.703c-10.734-41.28-48.312-71.827-92.904-71.827c-44.585,0-82.17,30.546-92.913,71.827
	c-34.179-2.094-62.709-5.031-84.045-7.703c-8.906-1.109-16.992-2.219-24.227-3.281c5.367-44.859,25.437-86.374,57.882-118.826
	c38.274-38.265,89.171-59.343,143.303-59.343l0,0c2.727,0,5.461-1.046,7.539-3.125c4.172-4.172,4.172-10.922,0-15.094
	c-2.078-2.078-4.812-3.125-7.539-3.125l0,0l0,0l0,0c-59.835,0-116.084,23.312-158.388,65.608
	C61.936,133.277,39.795,178.87,33.725,228.15c-4.094-0.688-7.617-1.328-10.531-1.875C29.647,174.856,52.827,127.31,90.06,90.06z
	 M330.649,266.667c0,41.171-33.483,74.67-74.654,74.67s-74.663-33.499-74.663-74.67s33.491-74.671,74.663-74.671
	C297.166,191.996,330.649,225.495,330.649,266.667z M21.335,255.995c0-2.781,0.062-5.547,0.156-8.312
	c21.968,4.062,70.35,11.812,138.552,16.047c-0.031,0.984-0.047,1.953-0.047,2.938c0,2.578,0.102,5.141,0.305,7.656
	c-32.944-2.078-60.506-4.938-81.264-7.531c-27.484-3.422-47.273-6.875-57.679-8.859C21.351,257.292,21.335,256.651,21.335,255.995z
	 M421.93,421.93c-44.328,44.327-103.249,68.733-165.935,68.733c-62.679,0-121.607-24.406-165.935-68.733
	c-38.64-38.64-62.14-88.405-67.53-142.06c22.937,4.219,72.53,12.03,142.06,16.124c12.422,38.64,48.702,66.671,91.405,66.671
	c42.702,0,78.982-28.031,91.404-66.671c45.594-2.688,82.623-6.968,109.186-10.78c-6.188,43.029-25.984,82.779-57.28,114.091
	c-38.28,38.28-89.186,59.358-143.31,59.358l0,0c-2.727,0-5.461,1.047-7.539,3.125c-4.172,4.172-4.172,10.922,0,15.078
	c2.078,2.094,4.812,3.125,7.539,3.125c59.843,0,116.092-23.297,158.388-65.593c36.171-36.187,58.437-82.53,64.14-132.606
	c4.141-0.703,7.781-1.328,10.938-1.922C484.069,333.524,460.569,383.29,421.93,421.93z"/>
<path d="M255.995,213.339c-29.406,0-53.335,23.922-53.335,53.328c0,29.405,23.929,53.326,53.335,53.326s53.343-23.921,53.343-53.326
	C309.338,237.261,285.401,213.339,255.995,213.339z M255.995,298.666c-17.648,0-32-14.358-32-31.999s14.351-32,32-32
	c17.641,0,32,14.359,32,32S273.636,298.666,255.995,298.666z"/>
<g>
</g>
<g>
</g>
<g>
</g>
<g>
</g>
<g>
</g>
<g>
</g>
<g>
</g>
<g>
</g>
<g>
</g>
<g>
</g>
<g>
</g>
<g>
</g>
<g>
</g>
<g>
</g>
<g>
</g>
</svg>
